<?xml version="1.0" encoding="UTF-8"?>
<svg version="1.1" xmlns="http://www.w3.org/2000/svg" width="48" height="48">
<path d="M0 0 C4.19972453 0.50861716 5.97053907 1.60389405 8.875 4.625 C13.44746178 8.94946385 18.26309319 11.25326435 24.03466797 13.56494141 C28.78611925 15.54867536 28.78611925 15.54867536 29.921875 17.9453125 C29.94765625 18.62335937 29.9734375 19.30140625 30 20 C30.10054687 21.02480469 30.10054687 21.02480469 30.203125 22.0703125 C30.24823239 24.04751989 30.12733024 26.02638131 30 28 C26.84274381 30.10483746 26.12625389 30.2472059 22.52856445 30.22705078 C21.17750359 30.22682419 21.17750359 30.22682419 19.79914856 30.22659302 C18.83031235 30.21627045 17.86147614 30.20594788 16.86328125 30.1953125 C15.37141548 30.19106766 15.37141548 30.19106766 13.84941101 30.18673706 C10.6703187 30.17553489 7.49150728 30.15043014 4.3125 30.125 C2.15820719 30.11497025 0.00390997 30.10584439 -2.15039062 30.09765625 C-7.43368972 30.07559546 -12.71682479 30.04211756 -18 30 C-18.02689216 28.52093108 -18.04634621 27.04172517 -18.0625 25.5625 C-18.07410156 24.73878906 -18.08570312 23.91507813 -18.09765625 23.06640625 C-18 21 -18 21 -17 20 C-16.4605275 16.70876442 -16.0338661 13.40795985 -15.59765625 10.1015625 C-15 7 -15 7 -13 4 C-10.13275314 4.57344937 -9.1385485 4.8614515 -7 7 C-4.67724823 7.40047444 -2.34260643 7.7397104 0 8 C0 5.36 0 2.72 0 0 Z " fill="#2FB7FC" transform="translate(18,9)"/>
<path d="M0 0 C2.0182207 0.24183472 4.03627393 0.48511078 6.05371094 0.73339844 C11.53611775 1.22948629 17.03852804 1.14723594 22.5390625 1.13037109 C24.62767738 1.12499311 26.71607898 1.13035403 28.8046875 1.13671875 C30.1536463 1.13605815 31.50260497 1.13477737 32.8515625 1.1328125 C34.05635254 1.13168457 35.26114258 1.13055664 36.50244141 1.12939453 C40.06379545 0.99763984 43.48373498 0.56626881 47 0 C47.29296875 6.0546875 47.29296875 6.0546875 47 8 C43.84274381 10.10483746 43.12625389 10.2472059 39.52856445 10.22705078 C38.17750359 10.22682419 38.17750359 10.22682419 36.79914856 10.22659302 C35.83031235 10.21627045 34.86147614 10.20594788 33.86328125 10.1953125 C32.37141548 10.19106766 32.37141548 10.19106766 30.84941101 10.18673706 C27.6703187 10.17553489 24.49150728 10.15043014 21.3125 10.125 C19.15820719 10.11497025 17.00390997 10.10584439 14.84960938 10.09765625 C9.56631028 10.07559546 4.28317521 10.04211756 -1 10 C-1.02689216 8.52093108 -1.04634621 7.04172517 -1.0625 5.5625 C-1.07410156 4.73878906 -1.08570312 3.91507813 -1.09765625 3.06640625 C-1 1 -1 1 0 0 Z " fill="#7E9EF9" transform="translate(1,29)"/>
<path d="M0 0 C0.33 1.32 0.66 2.64 1 4 C7.05060637 4.04944549 13.10109505 4.08574129 19.15185547 4.10986328 C21.21014454 4.11991954 23.26841933 4.13356629 25.32666016 4.15087891 C28.28551763 4.17514354 31.24418617 4.18648688 34.203125 4.1953125 C35.12305237 4.20563507 36.04297974 4.21595764 36.99078369 4.22659302 C38.28166901 4.22681961 38.28166901 4.22681961 39.59863281 4.22705078 C40.35364075 4.231492 41.10864868 4.23593323 41.88653564 4.24050903 C44.28848957 3.96717033 45.91393523 3.192211 48 2 C47.625 3.9375 47.625 3.9375 47 6 C44.6479994 7.1760003 43.26265599 7.12084541 40.64208984 7.11352539 C39.29091568 7.11341209 39.29091568 7.11341209 37.91244507 7.11329651 C36.93844757 7.10813522 35.96445007 7.10297394 34.9609375 7.09765625 C33.96494537 7.0962413 32.96895325 7.09482635 31.94277954 7.09336853 C28.75348947 7.08775936 25.56426894 7.0752053 22.375 7.0625 C20.21614685 7.05748618 18.05729259 7.05292307 15.8984375 7.04882812 C10.5989345 7.03778695 5.29947222 7.02103988 0 7 C0 4.69 0 2.38 0 0 Z " fill="#CEA8FD" transform="translate(0,32)"/>
<path d="M0 0 C0.99 0 1.98 0 3 0 C3.25 2.3125 3.25 2.3125 3 5 C0.46636766 7.84569758 -1.13348168 8.01198249 -4.97070312 8.35644531 C-6.57423428 8.36271469 -8.17788838 8.35227035 -9.78125 8.328125 C-11.0569989 8.32531525 -11.0569989 8.32531525 -12.35852051 8.32244873 C-14.15392995 8.31573623 -15.94932496 8.30183761 -17.74462891 8.28125 C-20.49004749 8.25011288 -23.2348911 8.24027841 -25.98046875 8.234375 C-27.72656948 8.22520355 -29.47266439 8.21482732 -31.21875 8.203125 C-32.03863403 8.19887512 -32.85851807 8.19462524 -33.70324707 8.19024658 C-37.29585548 8.14528006 -40.5420288 7.96708016 -44 7 C-44.33 5.02 -44.66 3.04 -45 1 C-44.34 1 -43.68 1 -43 1 C-42.34 2.32 -41.68 3.64 -41 5 C-35.62484067 5.02467759 -30.24971415 5.04284928 -24.87451172 5.05493164 C-23.04507879 5.05996737 -21.21564991 5.06679627 -19.38623047 5.07543945 C-16.76008102 5.08753824 -14.13398468 5.09323583 -11.5078125 5.09765625 C-10.68693146 5.10281754 -9.86605042 5.10797882 -9.02029419 5.11329651 C-4.87788156 5.22351874 -4.87788156 5.22351874 -1 4 C-1.495 3.01 -1.495 3.01 -2 2 C-1.34 2 -0.68 2 0 2 C0 1.34 0 0.68 0 0 Z " fill="#979CF8" transform="translate(45,29)"/>
</svg>
