<?xml version="1.0" encoding="UTF-8"?>
<svg version="1.1" xmlns="http://www.w3.org/2000/svg" width="48" height="48">
<path d="M0 0 C3.0625 1.75 3.0625 1.75 5 4 C5.33 5.32 5.66 6.64 6 8 C9.3 8 12.6 8 16 8 C16 6.02 16 4.04 16 2 C17.32 2 18.64 2 20 2 C20 3.98 20 5.96 20 8 C21.98 8 23.96 8 26 8 C26 10.97 26 13.94 26 17 C25.34 17 24.68 17 24 17 C24 23.93 24 30.86 24 38 C12.78 38 1.56 38 -10 38 C-10 32.39 -10 26.78 -10 21 C-11.32 20.34 -12.64 19.68 -14 19 C-16.82368571 14.76447144 -16.66653757 10.97522686 -16 6 C-11.94882044 -0.61692661 -7.29209826 -0.83698612 0 0 Z " fill="#36BCFC" transform="translate(19,5)"/>
<path d="M0 0 C2.93423195 1.79646854 4.47205355 2.9441071 6 6 C6.52999351 9.78566792 6.83021253 13.44856036 4.98828125 16.890625 C2.84136401 19.54687096 1.25877827 20.91374058 -2 22 C-7.00401435 22.37066773 -9.98301324 22.09881835 -14 19 C-16.82368571 14.76447144 -16.66653757 10.97522686 -16 6 C-11.95766104 -0.60248696 -7.2842127 -0.85898735 0 0 Z " fill="#829FF9" transform="translate(19,5)"/>
<path d="M0 0 C3.125 1.8125 3.125 1.8125 5 4 C5 4.99 5 5.98 5 7 C2.36 7 -0.28 7 -3 7 C-2.34 9.64 -1.68 12.28 -1 15 C-3 14 -5 13 -7 12 C-7 10.35 -7 8.7 -7 7 C-8.65 7.33 -10.3 7.66 -12 8 C-12 11.63 -12 15.26 -12 19 C-12.99 18.67 -13.98 18.34 -15 18 C-16.84862688 14.30274625 -16.47587094 10.03538558 -16 6 C-11.95274157 -0.6105221 -7.28833119 -0.84668212 0 0 Z " fill="#D4A9FE" transform="translate(19,5)"/>
<path d="M0 0 C1.32 0 2.64 0 4 0 C4.06058594 0.61488281 4.12117188 1.22976563 4.18359375 1.86328125 C4.26738281 2.67152344 4.35117187 3.47976562 4.4375 4.3125 C4.51871094 5.11300781 4.59992187 5.91351563 4.68359375 6.73828125 C4.95265693 9.16087179 4.95265693 9.16087179 6 12 C4 11 2 10 0 9 C0 7.35 0 5.7 0 4 C-1.65 4.33 -3.3 4.66 -5 5 C-5 8.63 -5 12.26 -5 16 C-5.99 15.67 -6.98 15.34 -8 15 C-9.35015859 10.94952424 -8.62084998 8.2079832 -8 4 C-6.865625 3.71125 -5.73125 3.4225 -4.5625 3.125 C-3.386875 2.75375 -2.21125 2.3825 -1 2 C-0.67 1.34 -0.34 0.68 0 0 Z " fill="#AB92FB" transform="translate(12,8)"/>
<path d="M0 0 C1.32 0 2.64 0 4 0 C4 3.63 4 7.26 4 11 C2.68 10.67 1.36 10.34 0 10 C0 6.7 0 3.4 0 0 Z " fill="#93B6FB" transform="translate(35,7)"/>
<path d="M0 0 C1.98 0 3.96 0 6 0 C6 1.98 6 3.96 6 6 C4.02 6 2.04 6 0 6 C0 4.02 0 2.04 0 0 Z " fill="#009CFC" transform="translate(32,32)"/>
<path d="M0 0 C1.98 0 3.96 0 6 0 C6 1.98 6 3.96 6 6 C4.02 6 2.04 6 0 6 C0 4.02 0 2.04 0 0 Z " fill="#009CFC" transform="translate(23,32)"/>
<path d="M0 0 C1.98 0 3.96 0 6 0 C6 1.98 6 3.96 6 6 C4.02 6 2.04 6 0 6 C0 4.02 0 2.04 0 0 Z " fill="#009CFC" transform="translate(14,32)"/>
<path d="M0 0 C2.97 0.495 2.97 0.495 6 1 C6 2.32 6 3.64 6 5 C4.02 5 2.04 5 0 5 C0 3.35 0 1.7 0 0 Z " fill="#1DAEFC" transform="translate(23,24)"/>
<path d="M0 0 C0.66 0 1.32 0 2 0 C2.12375 1.0725 2.2475 2.145 2.375 3.25 C2.89643936 6.37863615 3.40088254 8.33480424 5 11 C1.125 9.125 1.125 9.125 0 8 C-0.14115161 5.32941149 -0.04247107 2.67567762 0 0 Z " fill="#F7F3FF" transform="translate(13,9)"/>
<path d="M0 0 C1.98 0 3.96 0 6 0 C6 1.32 6 2.64 6 4 C4.02 4 2.04 4 0 4 C0 2.68 0 1.36 0 0 Z " fill="#1CADFC" transform="translate(32,25)"/>
</svg>
