<?xml version="1.0" encoding="UTF-8"?>
<svg version="1.1" xmlns="http://www.w3.org/2000/svg" width="48" height="48">
<path d="M0 0 C3.125 1.5 3.125 1.5 5 3 C5.55816406 2.5153125 6.11632812 2.030625 6.69140625 1.53125 C10.54960154 -1.02782369 14.53491001 -0.79475712 19 0 C22.34083568 2.59085216 24.68235873 4.83682277 25.30859375 9.1015625 C25.61336555 15.06770134 24.81642202 18.48469135 20.921875 23.046875 C9.5330597 34.62087429 9.5330597 34.62087429 4.625 35.35546875 C1.17404541 34.88815198 -0.35466743 33.54863268 -3 31.3125 C-3.86367188 30.58417969 -4.72734375 29.85585938 -5.6171875 29.10546875 C-8.21286942 26.81190719 -10.70790402 24.59770878 -13 22 C-13 21.34 -13 20.68 -13 20 C-16.3 20 -19.6 20 -23 20 C-23 18.68 -23 17.36 -23 16 C-20.69 16 -18.38 16 -16 16 C-16.03480469 15.40832031 -16.06960937 14.81664062 -16.10546875 14.20703125 C-16.27430004 9.27876563 -16.25919114 5.98345584 -13 2 C-8.76146751 -0.82568832 -4.97857829 -0.5470094 0 0 Z " fill="#FEC927" transform="translate(23,8)"/>
<path d="M0 0 C3.5625 -0.25 3.5625 -0.25 7 0 C8 1 8 1 8.09765625 2.84765625 C8.06510417 4.8984375 8.03255208 6.94921875 8 9 C8.66 8.67 9.32 8.34 10 8 C11.83037287 7.87854007 13.66564133 7.82456815 15.5 7.8125 C16.4796875 7.79832031 17.459375 7.78414062 18.46875 7.76953125 C21 8 21 8 23 10 C22.44444444 14.55555556 22.44444444 14.55555556 21 16 C18.32941149 16.14115161 15.67567762 16.04247107 13 16 C12.773125 16.804375 12.54625 17.60875 12.3125 18.4375 C11.879375 19.283125 11.44625 20.12875 11 21 C8.375 21.8125 8.375 21.8125 6 22 C5.505 21.175 5.01 20.35 4.5 19.5 C2.33727308 16.84997241 2.33727308 16.84997241 -0.046875 16.66796875 C-2.03425598 16.68558738 -4.01940609 16.83495051 -6 17 C-6.33 16.01 -6.66 15.02 -7 14 C-10.3 14 -13.6 14 -17 14 C-17 12.68 -17 11.36 -17 10 C-14.69 10 -12.38 10 -10 10 C-10 9.34 -10 8.68 -10 8 C-7.69 8 -5.38 8 -3 8 C-2.87625 7.236875 -2.7525 6.47375 -2.625 5.6875 C-2 3 -2 3 0 0 Z " fill="#FE8C90" transform="translate(17,14)"/>
<path d="M0 0 C0.9796875 -0.01417969 1.959375 -0.02835938 2.96875 -0.04296875 C5.5 0.1875 5.5 0.1875 7.5 2.1875 C6.94444444 6.74305556 6.94444444 6.74305556 5.5 8.1875 C2.82941149 8.32865161 0.17567762 8.22997107 -2.5 8.1875 C-2.83 8.8475 -3.16 9.5075 -3.5 10.1875 C-3.5 8.8675 -3.5 7.5475 -3.5 6.1875 C-0.53 6.1875 2.44 6.1875 5.5 6.1875 C5.17 5.1975 4.84 4.2075 4.5 3.1875 C0.54 3.1875 -3.42 3.1875 -7.5 3.1875 C-7.5 2.5275 -7.5 1.8675 -7.5 1.1875 C-4.89820337 -0.11339831 -2.9030812 0.01909922 0 0 Z " fill="#F99C79" transform="translate(32.5,21.8125)"/>
<path d="M0 0 C0.66 0 1.32 0 2 0 C2.99 2.64 3.98 5.28 5 8 C6.65 7.67 8.3 7.34 10 7 C9.34 8.32 8.68 9.64 8 11 C5.6875 10.75 5.6875 10.75 3 10 C2.566875 9.319375 2.13375 8.63875 1.6875 7.9375 C0.20790691 5.80801471 0.20790691 5.80801471 -1.9609375 5.73828125 C-3.97581992 5.74888589 -5.98940773 5.86815788 -8 6 C-8 5.34 -8 4.68 -8 4 C-5.69 4 -3.38 4 -1 4 C-0.67 2.68 -0.34 1.36 0 0 Z " fill="#FA9E65" transform="translate(19,25)"/>
<path d="M0 0 C3.625 -0.1875 3.625 -0.1875 7 0 C7.33 1.65 7.66 3.3 8 5 C7.34 4.01 6.68 3.02 6 2 C3.43717258 1.27034634 3.43717258 1.27034634 1 1 C0.01 3.97 -0.98 6.94 -2 10 C-4.64 9.67 -7.28 9.34 -10 9 C-10 8.67 -10 8.34 -10 8 C-7.69 8 -5.38 8 -3 8 C-2.814375 6.8553125 -2.814375 6.8553125 -2.625 5.6875 C-2 3 -2 3 0 0 Z " fill="#FBAB6E" transform="translate(17,14)"/>
<path d="M0 0 C2.64 0 5.28 0 8 0 C8.66 1.32 9.32 2.64 10 4 C6.7 4 3.4 4 0 4 C0 2.68 0 1.36 0 0 Z " fill="#FB2BC7" transform="translate(0,24)"/>
<path d="M0 0 C1.65 0 3.3 0 5 0 C6.76462683 3.08809695 7 4.23312136 7 8 C6.34 8 5.68 8 5 8 C4.731875 7.05125 4.46375 6.1025 4.1875 5.125 C3.25013412 1.74732727 3.25013412 1.74732727 0 0 Z " fill="#FA9D8B" transform="translate(18,15)"/>
</svg>
