<?xml version="1.0" encoding="UTF-8"?>
<svg version="1.1" xmlns="http://www.w3.org/2000/svg" width="48" height="48">
<path d="M0 0 C1.1588269 0.42853271 1.1588269 0.42853271 2.34106445 0.86572266 C3.66106445 0.86572266 4.98106445 0.86572266 6.34106445 0.86572266 C6.34106445 2.18572266 6.34106445 3.50572266 6.34106445 4.86572266 C6.52668945 5.75259766 6.71231445 6.63947266 6.90356445 7.55322266 C7.04793945 8.31634766 7.19231445 9.07947266 7.34106445 9.86572266 C7.01106445 10.19572266 6.68106445 10.52572266 6.34106445 10.86572266 C6.2740332 11.90728516 6.20700195 12.94884766 6.13793945 14.02197266 C5.11980136 18.9329917 3.12466602 20.98356115 -0.40893555 24.36572266 C-0.93487305 24.91486328 -1.46081055 25.46400391 -2.00268555 26.02978516 C-3.58081055 27.58447266 -3.58081055 27.58447266 -6.65893555 29.86572266 C-8.33282182 29.57077583 -10.0009487 29.23984631 -11.65893555 28.86572266 C-14.14721675 30.89046345 -14.14721675 30.89046345 -16.40893555 33.67822266 C-20.34359421 37.88889469 -22.8991909 39.99017708 -28.65112305 40.58447266 C-30.96973865 40.90925928 -32.62443436 41.73443051 -34.65893555 42.86572266 C-34.65893555 38.88643168 -34.0136845 36.55365036 -32.65893555 32.86572266 C-32.43246338 32.11468262 -32.20599121 31.36364258 -31.97265625 30.58984375 C-30.13789644 26.78529999 -27.47307882 24.19280223 -24.5144043 21.21728516 C-23.9076033 20.60049896 -23.30080231 19.98371277 -22.6756134 19.34823608 C-21.39431638 18.05179336 -20.10895788 16.75935366 -18.81982422 15.47070312 C-16.847656 13.49194719 -14.90073203 11.49042472 -12.95385742 9.48681641 C-11.70467975 8.22884121 -10.45407598 6.97228019 -9.2019043 5.71728516 C-8.62151901 5.11534332 -8.04113373 4.51340149 -7.44316101 3.89321899 C-3.31376656 -0.16734658 -3.31376656 -0.16734658 0 0 Z " fill="#7DA0F8" transform="translate(38.658935546875,2.13427734375)"/>
<path d="M0 0 C1.2684375 0.3403125 1.2684375 0.3403125 2.5625 0.6875 C3.8825 0.6875 5.2025 0.6875 6.5625 0.6875 C6.5625 2.0075 6.5625 3.3275 6.5625 4.6875 C6.748125 5.574375 6.93375 6.46125 7.125 7.375 C7.269375 8.138125 7.41375 8.90125 7.5625 9.6875 C7.2325 10.0175 6.9025 10.3475 6.5625 10.6875 C6.47162109 12.25177734 6.47162109 12.25177734 6.37890625 13.84765625 C5.32030682 18.82661911 3.16362394 20.78796197 -0.5 24.125 C-1.06783203 24.66576172 -1.63566406 25.20652344 -2.22070312 25.76367188 C-3.61299838 27.08576737 -5.0234884 28.38865676 -6.4375 29.6875 C-7.7575 29.0275 -9.0775 28.3675 -10.4375 27.6875 C-7.93403351 22.82782976 -4.35197559 19.40893296 -0.4375 15.6875 C-1.78771826 11.26860387 -3.69865668 9.34404657 -7.4375 6.6875 C-4.19836957 -0.53825251 -4.19836957 -0.53825251 0 0 Z " fill="#55CBFD" transform="translate(38.4375,2.3125)"/>
<path d="M0 0 C0.66 0.33 1.32 0.66 2 1 C0.66000502 4.006818 -0.79845291 5.99762609 -3.1875 8.25 C-5.77823497 10.76011044 -8.20957815 13.32788194 -10.5625 16.0625 C-11.7070873 17.37608677 -12.85287858 18.68862563 -14 20 C-14.52722656 20.60714844 -15.05445313 21.21429688 -15.59765625 21.83984375 C-19.34659091 25.91477273 -19.34659091 25.91477273 -22.875 26.375 C-23.57625 26.25125 -24.2775 26.1275 -25 26 C-22.94742954 23.94742954 -20.89465177 21.89766172 -18.8125 19.875 C-16.31268312 17.38287486 -13.97497299 14.75824647 -11.625 12.125 C-7.88289156 7.93785018 -4.02821337 3.91164128 0 0 Z " fill="#CEA5FD" transform="translate(37,15)"/>
<path d="M0 0 C0.66 0.33 1.32 0.66 2 1 C0.62118199 6.68762428 -3.67416569 9.47205918 -8 13 C-12.1509818 16.43270326 -15.69097721 19.71052601 -19 24 C-19.66 24.33 -20.32 24.66 -21 25 C-21.33 25.99 -21.66 26.98 -22 28 C-22.66 27.67 -23.32 27.34 -24 27 C-22.5738115 22.49792736 -20.33807795 19.98742144 -16.9921875 16.69921875 C-16.50670441 16.2179805 -16.02122131 15.73674225 -15.52102661 15.24092102 C-13.97928936 13.71588414 -12.42742109 12.20165211 -10.875 10.6875 C-9.82353045 9.65108846 -8.7727415 8.61398595 -7.72265625 7.57617188 C-5.1562663 5.04273605 -2.5806871 2.51887992 0 0 Z " fill="#D4A9FE" transform="translate(30,8)"/>
<path d="M0 0 C2.375 0.375 2.375 0.375 5 1 C6.32 1 7.64 1 9 1 C9 2.32 9 3.64 9 5 C9.30404678 6.67225729 9.63128912 8.34080104 10 10 C8.02 10.99 8.02 10.99 6 12 C6 11.34 6 10.68 6 10 C5.4225 9.79375 4.845 9.5875 4.25 9.375 C1.18589456 7.50249112 -0.15539968 5.03041481 -2 2 C-1.34 1.34 -0.68 0.68 0 0 Z " fill="#A1AAFB" transform="translate(36,2)"/>
<path d="M0 0 C0.33 0.99 0.66 1.98 1 3 C-0.07421875 4.7890625 -0.07421875 4.7890625 -1.6875 6.625 C-2.20699219 7.23601563 -2.72648437 7.84703125 -3.26171875 8.4765625 C-5 10 -5 10 -7.08203125 10.4609375 C-8.03142578 10.72777344 -8.03142578 10.72777344 -9 11 C-9.70945242 12.31106807 -10.37012606 13.64889636 -11 15 C-13.0234375 17.0703125 -13.0234375 17.0703125 -15.375 19.125 C-16.14585938 19.80820312 -16.91671875 20.49140625 -17.7109375 21.1953125 C-19.75712617 22.80851927 -21.62785421 23.94932355 -24 25 C-21.66425775 17.99277324 -13.25648717 12.78146356 -7.77734375 8.1015625 C-7.06707031 7.49054687 -6.35679688 6.87953125 -5.625 6.25 C-4.97789063 5.69828125 -4.33078125 5.1465625 -3.6640625 4.578125 C-1.77599482 2.90452414 -1.77599482 2.90452414 0 0 Z " fill="#A29EF9" transform="translate(32,10)"/>
<path d="M0 0 C1.32 0.66 2.64 1.32 4 2 C3.34 3.32 2.68 4.64 2 6 C0.68 4.68 -0.64 3.36 -2 2 C-1.34 1.34 -0.68 0.68 0 0 Z " fill="#69D8FC" transform="translate(42,2)"/>
<path d="M0 0 C0.99 0.33 1.98 0.66 3 1 C2.67 2.32 2.34 3.64 2 5 C0.68 4.34 -0.64 3.68 -2 3 C-1.34 2.01 -0.68 1.02 0 0 Z " fill="#C7AAFC" transform="translate(36,2)"/>
</svg>
