<?xml version="1.0" encoding="UTF-8"?>
<svg version="1.1" xmlns="http://www.w3.org/2000/svg" width="48" height="48">
<path d="M0 0 C1.32 0 2.64 0 4 0 C4.33 2.64 4.66 5.28 5 8 C7.31 8.33 9.62 8.66 12 9 C12.33 6.03 12.66 3.06 13 0 C14.32 0 15.64 0 17 0 C17 3.96 17 7.92 17 12 C21.25357879 10.40267275 21.25357879 10.40267275 25 8 C26.0451509 5.16238823 26 3.08209291 26 0 C27.32 0 28.64 0 30 0 C30 1.65 30 3.3 30 5 C31.32 4.67 32.64 4.34 34 4 C34 11.92 34 19.84 34 28 C35.32 28 36.64 28 38 28 C38 29.32 38 30.64 38 32 C22.82 32 7.64 32 -8 32 C-8 30.68 -8 29.36 -8 28 C-6.68 28 -5.36 28 -4 28 C-4 23.71 -4 19.42 -4 15 C-2.68 14.34 -1.36 13.68 0 13 C0 8.71 0 4.42 0 0 Z " fill="#2AD097" transform="translate(9,8)"/>
<path d="M0 0 C0 6.6 0 13.2 0 20 C-2.97 20 -5.94 20 -9 20 C-9 14.72 -9 9.44 -9 4 C-1.125 0 -1.125 0 0 0 Z " fill="#1CD3AD" transform="translate(35,16)"/>
<path d="M0 0 C3.5 0.3125 3.5 0.3125 7 1 C8.60670684 4.21341369 7.82510855 7.62958968 7.5625 11.125 C7.51029297 11.87910156 7.45808594 12.63320313 7.40429688 13.41015625 C7.27454996 15.2737937 7.13792512 17.13694996 7 19 C4.69 19 2.38 19 0 19 C-0.1938211 16.02111874 -0.38035102 13.04209754 -0.5625 10.0625 C-0.61857422 9.21236328 -0.67464844 8.36222656 -0.73242188 7.48632812 C-0.80493164 6.27299805 -0.80493164 6.27299805 -0.87890625 5.03515625 C-0.9260376 4.2862915 -0.97316895 3.53742676 -1.02172852 2.76586914 C-1 1 -1 1 0 0 Z " fill="#15DFC5" transform="translate(14,16)"/>
<path d="M0 0 C1.32 0 2.64 0 4 0 C4 9.24 4 18.48 4 28 C6.64 28 9.28 28 12 28 C12 28.33 12 28.66 12 29 C5.4 29 -1.2 29 -8 29 C-8 28.67 -8 28.34 -8 28 C-5.36 28 -2.72 28 0 28 C0 18.76 0 9.52 0 0 Z " fill="#2CD190" transform="translate(22,8)"/>
<path d="M0 0 C1.32 0 2.64 0 4 0 C4 0.66 4 1.32 4 2 C16.54 2 29.08 2 42 2 C42 1.34 42 0.68 42 0 C43.32 0 44.64 0 46 0 C46 1.32 46 2.64 46 4 C30.82 4 15.64 4 0 4 C0 2.68 0 1.36 0 0 Z " fill="#60D647" transform="translate(1,36)"/>
<path d="M0 0 C0 5.28 0 10.56 0 16 C-1.65 16 -3.3 16 -5 16 C-5.08075665 13.70890403 -5.13907731 11.41700733 -5.1875 9.125 C-5.22230469 7.84882813 -5.25710937 6.57265625 -5.29296875 5.2578125 C-5.19628906 4.18273437 -5.09960938 3.10765625 -5 2 C-2 0 -2 0 0 0 Z " fill="#13E9D7" transform="translate(33,18)"/>
<path d="M0 0 C0.66 0 1.32 0 2 0 C2 7.92 2 15.84 2 24 C1.01 23.67 0.02 23.34 -1 23 C-1.02887512 19.35418313 -1.04675585 15.70839537 -1.0625 12.0625 C-1.07087891 11.02158203 -1.07925781 9.98066406 -1.08789062 8.90820312 C-1.09272461 7.42416992 -1.09272461 7.42416992 -1.09765625 5.91015625 C-1.10289307 4.99371338 -1.10812988 4.07727051 -1.11352539 3.13305664 C-1 1 -1 1 0 0 Z " fill="#1CE4D4" transform="translate(41,12)"/>
<path d="M0 0 C0.99 0 1.98 0 3 0 C3 4.62 3 9.24 3 14 C1.68 14 0.36 14 -1 14 C-1.02685938 11.85423363 -1.04633088 9.70837355 -1.0625 7.5625 C-1.07410156 6.36753906 -1.08570313 5.17257813 -1.09765625 3.94140625 C-1 1 -1 1 0 0 Z " fill="#1ADAC3" transform="translate(6,22)"/>
<path d="M0 0 C0.99 0.33 1.98 0.66 3 1 C3 5.95 3 10.9 3 16 C2.01 16 1.02 16 0 16 C0 10.72 0 5.44 0 0 Z " fill="#01FCF4" transform="translate(16,17)"/>
<path d="M0 0 C1.32 0 2.64 0 4 0 C4.10824843 1.6026782 4.18570645 3.20745748 4.25 4.8125 C4.29640625 5.70582031 4.3428125 6.59914063 4.390625 7.51953125 C4 10 4 10 0 13 C0 8.71 0 4.42 0 0 Z " fill="#37CE59" transform="translate(9,8)"/>
<path d="M0 0 C1.32 0 2.64 0 4 0 C4 3.96 4 7.92 4 12 C2.68 11.67 1.36 11.34 0 11 C0 7.37 0 3.74 0 0 Z " fill="#37CE59" transform="translate(22,8)"/>
<path d="M0 0 C0.66 0 1.32 0 2 0 C2 4.29 2 8.58 2 13 C1.01 13 0.02 13 -1 13 C-1.02686553 11.02090602 -1.04633375 9.04171029 -1.0625 7.0625 C-1.07410156 5.96035156 -1.08570312 4.85820312 -1.09765625 3.72265625 C-1 1 -1 1 0 0 Z " fill="#01FCF4" transform="translate(30,20)"/>
<path d="M0 0 C1.32 0 2.64 0 4 0 C4 2.31 4 4.62 4 7 C2.68 7.33 1.36 7.66 0 8 C0 5.36 0 2.72 0 0 Z " fill="#34CC5B" transform="translate(35,8)"/>
</svg>
