<svg xmlns="http://www.w3.org/2000/svg" xmlns:xlink="http://www.w3.org/1999/xlink" viewBox="0,0,256,256" width="48px" height="48px" fill-rule="nonzero"><defs><linearGradient x1="24" y1="52.156" x2="24" y2="18.098" gradientUnits="userSpaceOnUse" id="color-1"><stop offset="0" stop-color="#339af0"></stop><stop offset="0.289" stop-color="#b6b5ee"></stop><stop offset="0.593" stop-color="#b6b5ee"></stop><stop offset="0.841" stop-color="#b6b5ee"></stop><stop offset="1" stop-color="#b6b5ee"></stop></linearGradient><linearGradient x1="24" y1="27.38" x2="24" y2="-0.326" gradientUnits="userSpaceOnUse" id="color-2"><stop offset="0" stop-color="#ffd8bb" stop-opacity="0.01961"></stop><stop offset="1" stop-color="#f4805d" stop-opacity="0"></stop></linearGradient><linearGradient x1="24" y1="22.015" x2="24" y2="3.803" gradientUnits="userSpaceOnUse" id="color-3"><stop offset="0" stop-color="#fffff0" stop-opacity="0"></stop><stop offset="1" stop-color="#ff9a83" stop-opacity="0"></stop></linearGradient></defs><g fill="none" fill-rule="nonzero" stroke="none" stroke-width="1" stroke-linecap="butt" stroke-linejoin="miter" stroke-miterlimit="10" stroke-dasharray="" stroke-dashoffset="0" font-family="none" font-weight="none" font-size="none" text-anchor="none" style="mix-blend-mode: normal"><g transform="scale(5.33333,5.33333)"><path d="M43,27.5c0,-2.314 -1.753,-4.198 -4,-4.45v-1.05c0,-8.284 -6.716,-15 -15,-15c-8.284,0 -15,6.716 -15,15v1.05c-2.247,0.252 -4,2.136 -4,4.45c0,2.363 1.828,4.279 4.143,4.464c0.964,7.354 7.24,13.036 14.857,13.036c7.617,0 13.893,-5.682 14.857,-13.036c2.315,-0.185 4.143,-2.101 4.143,-4.464z" fill="url(#color-1)"></path><path d="M28.043,17c3.125,2.37 7.523,4.024 11.699,4.687c-0.16,-4.758 -3.956,-15.437 -15.742,-15.437c-8.647,0 -15.667,6.981 -15.743,15.611c6.898,-0.49 13.7,-2.269 19.786,-4.861z" fill="#b6b5ee" opacity="0.4"></path><path d="M28.043,17c3.314,2.513 8.059,4.23 12.452,4.804c-0.103,-6.376 -5.269,-16.304 -16.495,-16.304c-9.071,0 -16.441,7.342 -16.495,16.401c7.155,-0.409 14.231,-2.214 20.538,-4.901z" fill="#b6b5ee" opacity="0.3"></path><path d="M28.043,17c3.504,2.657 8.605,4.415 13.201,4.88c-0.064,-8.114 -6.663,-17.13 -17.244,-17.13c-9.495,0 -17.215,7.704 -17.247,17.191c7.411,-0.32 14.762,-2.16 21.29,-4.941z" fill="#b6b5ee" opacity="0.2"></path><path d="M28.043,17c3.696,2.802 9.173,4.619 13.954,4.957c-0.023,-9.905 -8.087,-17.957 -17.997,-17.957c-9.918,0 -17.989,8.065 -17.999,17.981c7.665,-0.222 15.293,-2.106 22.042,-4.981z" fill="#b6b5ee" opacity="0.1"></path><path d="M33,28c0,1.105 -0.895,2 -2,2c-1.105,0 -2,-0.895 -2,-2c0,-1.105 0.895,-2 2,-2c1.105,0 2,0.895 2,2" fill-opacity="0" fill="#f4c496"></path><path d="M19,28c0,1.105 -0.895,2 -2,2c-1.105,0 -2,-0.895 -2,-2c0,-1.105 0.895,-2 2,-2c1.105,0 2,0.895 2,2" fill-opacity="0" fill="#f4c496"></path><path d="M39,23.05v-0.627c0,-8.077 -6.207,-15.027 -14.275,-15.406c-8.614,-0.405 -15.725,6.458 -15.725,14.983v1.05c-0.746,0.084 -1.424,0.364 -2.013,0.765c-0.001,0.058 -0.005,0.112 -0.006,0.17c3.86,-0.326 10.52,-0.792 19.314,-4.127c0.923,-0.35 1.959,-0.257 2.813,0.237c4.823,2.791 9.813,3.483 11.941,3.881c-0.001,-0.047 -0.006,-0.091 -0.007,-0.138c-0.595,-0.413 -1.283,-0.703 -2.042,-0.788z" fill-opacity="0" fill="#ef7c20" opacity="0.1"></path><path d="M39,23.05v-0.627c0,-8.077 -6.207,-15.027 -14.275,-15.406c-8.614,-0.405 -15.725,6.458 -15.725,14.983v1.05c-0.557,0.062 -1.07,0.247 -1.546,0.493c4.312,-0.366 10.783,-1.058 18.813,-4.107c0.971,-0.369 2.061,-0.268 2.96,0.254c4.189,2.429 8.613,3.28 11.082,3.741c-0.411,-0.183 -0.843,-0.328 -1.309,-0.381z" fill="#b6b5ee" opacity="0.15"></path><path d="M39,22c0,-8.525 -7.111,-15.388 -15.725,-14.983c-8.068,0.38 -14.275,7.33 -14.275,15.407v0.574c4.602,-0.451 10.489,-1.409 17.258,-3.988c1.015,-0.386 2.15,-0.267 3.088,0.28c3.379,1.968 7.02,2.932 9.654,3.478z" fill="#b6b5ee" opacity="0.2"></path><path d="M39,22c0,-8.525 -7.111,-15.388 -15.725,-14.983c-8.068,0.38 -14.275,7.33 -14.275,15.407v0.174c4.988,-0.479 10.842,-1.573 17.152,-3.977c1.121,-0.427 2.369,-0.276 3.406,0.326c3.173,1.841 6.689,2.846 9.442,3.413z" fill="#b6b5ee" opacity="0.25"></path><path d="M20.062,7.501c-6.562,1.67 -11.062,7.727 -11.062,14.499v0.201c5.416,-0.494 11.236,-1.746 17.054,-3.97c1.189,-0.455 2.504,-0.334 3.601,0.312c2.955,1.74 6.379,2.823 9.343,3.413c-0.027,-9.544 -8.966,-16.992 -18.936,-14.455z" fill="#b6b5ee" opacity="0.3"></path><path d="M38.978,21.555c-0.104,-3.53 -1.424,-6.754 -3.557,-9.266c-0.015,-0.017 -0.031,-0.033 -0.045,-0.05c-0.29,-0.338 -0.593,-0.664 -0.911,-0.975c-0.038,-0.037 -0.079,-0.07 -0.117,-0.106c-0.3,-0.287 -0.609,-0.565 -0.932,-0.827c-0.067,-0.054 -0.14,-0.102 -0.208,-0.156c-0.301,-0.235 -0.607,-0.466 -0.927,-0.678c-0.105,-0.07 -0.218,-0.13 -0.325,-0.197c-0.292,-0.184 -0.586,-0.367 -0.891,-0.531c-0.147,-0.078 -0.301,-0.143 -0.451,-0.217c-0.278,-0.137 -0.553,-0.277 -0.84,-0.397c-0.19,-0.079 -0.389,-0.142 -0.583,-0.213c-0.258,-0.095 -0.512,-0.198 -0.777,-0.279c-0.239,-0.073 -0.486,-0.126 -0.73,-0.188c-0.23,-0.058 -0.456,-0.127 -0.69,-0.174c-0.306,-0.062 -0.619,-0.099 -0.931,-0.142c-0.181,-0.025 -0.359,-0.063 -0.542,-0.081c-0.501,-0.052 -1.008,-0.078 -1.521,-0.078c-0.516,0 -1.025,0.026 -1.528,0.077c-0.181,0.018 -0.356,0.056 -0.536,0.081c-0.316,0.044 -0.636,0.082 -0.946,0.145c-0.241,0.049 -0.474,0.121 -0.71,0.181c-0.24,0.061 -0.484,0.112 -0.719,0.185c-0.28,0.087 -0.55,0.196 -0.823,0.299c-0.181,0.068 -0.368,0.125 -0.546,0.2c-0.309,0.13 -0.605,0.282 -0.903,0.431c-0.132,0.066 -0.269,0.122 -0.399,0.192c-0.331,0.179 -0.649,0.378 -0.964,0.581c-0.086,0.055 -0.178,0.103 -0.263,0.16c-0.345,0.232 -0.676,0.482 -1,0.741c-0.047,0.038 -0.099,0.071 -0.146,0.109c-0.35,0.286 -0.684,0.589 -1.006,0.905c-0.016,0.016 -0.035,0.03 -0.051,0.047c-2.706,2.677 -4.397,6.378 -4.45,10.474c6.639,-0.562 13.169,-2.309 19.034,-4.807c2.935,2.224 6.992,3.817 10.934,4.554z" fill="#b6b5ee" opacity="0.5"></path><path d="M28.043,17c2.935,2.225 6.992,3.818 10.934,4.555c-0.237,-8.077 -6.843,-14.555 -14.977,-14.555c-8.219,0 -14.886,6.613 -14.99,14.807c6.639,-0.562 13.168,-2.309 19.033,-4.807z" fill="#b6b5ee"></path><path d="M24,4v0c-3,-2 -6.697,-1.478 -9,-0.536c-6.76,2.765 -10,10.15 -10,17.586v0.096c0,0.469 0.386,0.855 0.854,0.843c7.714,-0.202 15.397,-2.095 22.189,-4.989c3.731,2.829 9.279,4.658 14.092,4.971c0.473,0.031 0.865,-0.364 0.865,-0.837v-0.084c0,-7.823 -3.673,-15.545 -11,-18.05c-2.009,-0.687 -5,-1 -8,1z" fill="url(#color-2)"></path><path d="M28.918,2.975c0.972,0 1.954,0.167 2.92,0.498c6.477,2.214 10.662,9.114 10.662,17.577v0.084c0,0.183 -0.143,0.338 -0.331,0.338h-0.001c-4.917,-0.32 -10.342,-2.232 -13.823,-4.871l-0.231,-0.175l-0.267,0.114c-7.156,3.048 -14.765,4.759 -22.015,4.949c-0.18,0 -0.332,-0.157 -0.332,-0.343v-0.096c0,-6.362 2.545,-14.201 9.689,-17.123c1.258,-0.515 2.692,-0.798 4.038,-0.798c1.702,0 3.214,0.433 4.496,1.287l0.277,0.185l0.277,-0.185c1.434,-0.956 2.996,-1.441 4.641,-1.441M28.918,2.475c-1.518,0 -3.216,0.391 -4.918,1.525v0c-1.503,-1.002 -3.183,-1.371 -4.773,-1.371c-1.583,0 -3.078,0.365 -4.227,0.835c-6.76,2.765 -10,10.15 -10,17.586v0.096c0,0.461 0.374,0.843 0.832,0.843c0.007,0 0.014,0 0.022,0c7.714,-0.202 15.397,-2.095 22.189,-4.989c3.731,2.829 9.279,4.658 14.092,4.971c0.017,0.001 0.035,0.002 0.052,0.002c0.449,0 0.813,-0.383 0.813,-0.839v-0.084c0,-7.823 -3.673,-15.545 -11,-18.05c-0.87,-0.297 -1.923,-0.525 -3.082,-0.525z" fill="url(#color-3)"></path><path d="M19.322,36c-0.436,0 -0.672,0.529 -0.37,0.844c1.272,1.328 3.062,2.156 5.048,2.156c1.986,0 3.776,-0.828 5.049,-2.156c0.302,-0.315 0.066,-0.844 -0.371,-0.844z" fill-opacity="0" fill="#f4c496"></path></g></g></svg>