<svg xmlns="http://www.w3.org/2000/svg" xmlns:xlink="http://www.w3.org/1999/xlink" viewBox="0,0,256,256" width="96px" height="96px" fill-rule="nonzero"><defs><linearGradient x1="27.312" y1="21.688" x2="43.481" y2="5.519" gradientUnits="userSpaceOnUse" id="color-1"><stop offset="0.01" stop-color="#cc5de8"></stop><stop offset="0.246" stop-color="#e85d8e"></stop><stop offset="1" stop-color="#e85d5d"></stop></linearGradient><linearGradient x1="5.605" y1="43.395" x2="36.395" y2="12.605" gradientUnits="userSpaceOnUse" id="color-2"><stop offset="0" stop-color="#01fff7" stop-opacity="0.3"></stop><stop offset="1" stop-color="#01fff7" stop-opacity="0.4"></stop></linearGradient><linearGradient x1="27.004" y1="21.996" x2="-3.787" y2="52.787" gradientUnits="userSpaceOnUse" id="color-3"><stop offset="0" stop-color="#ffffff" stop-opacity="0.2"></stop><stop offset="1" stop-color="#278eff" stop-opacity="0.2"></stop></linearGradient></defs><g fill="none" fill-rule="nonzero" stroke="none" stroke-width="1" stroke-linecap="butt" stroke-linejoin="miter" stroke-miterlimit="10" stroke-dasharray="" stroke-dashoffset="0" font-family="none" font-weight="none" font-size="none" text-anchor="none" style="mix-blend-mode: normal"><g transform="scale(5.33333,5.33333)"><path d="M37,14.064c0,-1.14 -0.924,-2.064 -2.065,-2.064h-4.653l-8.52,8.52c-0.682,0.683 -0.682,1.792 0,2.474l4.243,4.243c0.684,0.684 1.791,0.684 2.475,0l8.52,-8.518z" fill="#cc5de8" opacity="0.4"></path><path d="M37,14.064c0,-1.14 -0.924,-2.064 -2.065,-2.064h-5.713l-7.99,7.99c-0.974,0.975 -0.974,2.56 0.001,3.535l4.243,4.243c0.977,0.977 2.559,0.978 3.536,0l7.988,-7.988z" fill="#cc5de8" opacity="0.3"></path><path d="M37,14.064c0,-1.14 -0.924,-2.064 -2.065,-2.064h-6.774l-7.46,7.46c-1.266,1.267 -1.266,3.328 0.001,4.595l4.242,4.242c1.27,1.271 3.326,1.272 4.597,0.001l7.459,-7.458z" fill="#cc5de8" opacity="0.2"></path><path d="M37,14.064c0,-1.14 -0.924,-2.064 -2.065,-2.064h-7.835l-6.93,6.93c-1.557,1.559 -1.557,4.096 0.001,5.655l4.242,4.242c1.563,1.564 4.094,1.566 5.658,0.001l6.929,-6.927z" fill="#cc5de8" opacity="0.1"></path><path d="M43.433,4.586h-11.649c-0.875,0 -1.312,1.057 -0.694,1.676l2.996,2.996l-11.793,11.792c-0.391,0.391 -0.391,1.024 0,1.414l4.243,4.243c0.391,0.391 1.024,0.391 1.414,0l11.793,-11.792l2.995,2.995c0.618,0.618 1.676,0.18 1.676,-0.694v-11.649c0,-0.542 -0.439,-0.981 -0.981,-0.981z" fill="url(#color-1)"></path><path d="M22.293,21.05c-0.391,0.391 -0.391,1.024 0,1.414l4.243,4.243c0.391,0.391 1.024,0.391 1.414,0l9.449,-9.449v-3.207c0,-1.354 -1.098,-2.452 -2.452,-2.452h-3.205z" fill="#cc5de8" opacity="0.4"></path><path d="M22.293,21.05c-0.391,0.391 -0.391,1.024 0,1.414l4.243,4.243c0.391,0.391 1.024,0.391 1.414,0l9.849,-9.849v-2.82c0,-1.568 -1.271,-2.839 -2.839,-2.839h-2.818z" fill="#cc5de8" opacity="0.3"></path><path d="M22.293,21.05c-0.391,0.391 -0.391,1.024 0,1.414l4.243,4.243c0.391,0.391 1.024,0.391 1.414,0l10.25,-10.249v-2.433c0,-1.782 -1.444,-3.226 -3.226,-3.226h-2.431z" fill="#cc5de8" opacity="0.2"></path><path d="M22.293,21.05c-0.391,0.391 -0.391,1.024 0,1.414l4.243,4.243c0.391,0.391 1.024,0.391 1.414,0l10.65,-10.649v-2.045c0,-1.995 -1.618,-3.613 -3.613,-3.613h-2.044z" fill="#cc5de8" opacity="0.1"></path><path d="M22.293,21.05c-0.391,0.391 -0.391,1.024 0,1.414l4.243,4.243c0.391,0.391 1.024,0.391 1.414,0l11.05,-11.049v-1.658c0,-2.209 -1.791,-4 -4,-4h-1.657z" fill="#cc5de8" opacity="0.05"></path><path d="M7.065,12h27.871c1.14,0 2.064,0.924 2.064,2.065v27.871c0,1.14 -0.924,2.064 -2.065,2.064h-27.87c-1.141,0 -2.065,-0.924 -2.065,-2.065v-27.87c0,-1.141 0.924,-2.065 2.065,-2.065z" fill="url(#color-2)"></path><path d="M34.935,12.5c0.863,0 1.565,0.702 1.565,1.565v27.871c0,0.863 -0.702,1.565 -1.565,1.565h-27.87c-0.863,0 -1.565,-0.702 -1.565,-1.565v-27.871c0,-0.863 0.702,-1.565 1.565,-1.565h27.87M34.935,12h-27.87c-1.141,0 -2.065,0.924 -2.065,2.065v27.871c0,1.14 0.924,2.064 2.065,2.064h27.871c1.14,0 2.064,-0.924 2.064,-2.065v-27.87c0,-1.141 -0.924,-2.065 -2.065,-2.065z" fill="url(#color-3)"></path></g></g></svg>